/* XPM */
static char *cde524d0751a47b3866f57d44216481a[] = {
/* columns rows colors chars-per-pixel */
"32 32 199 2 ",
"   c #020002",
".  c #0C0303",
"X  c #00040A",
"o  c #090509",
"O  c #090B0B",
"+  c #140809",
"@  c #130F13",
"#  c #2C0D04",
"$  c #270C09",
"%  c #230004",
"&  c #2A1112",
"*  c #32120E",
"=  c #2A1E2F",
"-  c #142A2B",
";  c #1B3837",
":  c #0E312C",
">  c #313032",
",  c #392F14",
"<  c #49150B",
"1  c #60160F",
"2  c #6A011F",
"3  c #542B07",
"4  c #6A2F00",
"5  c #6D3104",
"6  c #713100",
"7  c #6D301A",
"8  c #571A23",
"9  c #4C142F",
"0  c #660A2C",
"q  c #76112F",
"w  c #4F2A2B",
"e  c #782A25",
"r  c #5D4814",
"t  c #554408",
"y  c #7D4100",
"u  c #4D403C",
"i  c #59403B",
"p  c #7F763D",
"a  c #131D56",
"s  c #3A3C50",
"d  c #172464",
"f  c #333F6C",
"g  c #5C3B59",
"h  c #3A4B6B",
"j  c #376C68",
"k  c #357565",
"l  c #5D5353",
"z  c #645C57",
"x  c #6D4E55",
"c  c #797D5B",
"v  c #756F4C",
"b  c #5D4D61",
"n  c #4B7E6B",
"m  c #466D76",
"M  c #4A7B75",
"N  c #467878",
"B  c #436B6C",
"V  c #823700",
"C  c #8A1833",
"Z  c #A11E3B",
"A  c #AD3E2F",
"S  c #BC392A",
"D  c #DD3F27",
"F  c #884703",
"G  c #984904",
"H  c #995907",
"J  c #98551F",
"K  c #A34B00",
"L  c #A7530E",
"P  c #A5681E",
"I  c #865A25",
"U  c #9F4A28",
"Y  c #AF4035",
"T  c #BB422F",
"R  c #8C6220",
"E  c #8F7939",
"W  c #BD703C",
"Q  c #AF6D33",
"!  c #D14C1B",
"~  c #F24F1F",
"^  c #C56901",
"/  c #CB5936",
"(  c #E8582E",
")  c #FB552E",
"_  c #EF4C33",
"`  c #FF4F35",
"'  c #FF5439",
"]  c #B81B4B",
"[  c #8D3D58",
"{  c #BD3747",
"}  c #A12062",
"|  c #CC0E51",
" . c #CA0944",
".. c #FF1F58",
"X. c #FF0C49",
"o. c #CE294B",
"O. c #F9265B",
"+. c #DE0B65",
"@. c #FF0E6F",
"#. c #FF1269",
"$. c #D32463",
"%. c #FF2E72",
"&. c #FF2267",
"*. c #89744C",
"=. c #AE6046",
"-. c #B77B41",
";. c #B2557A",
":. c #AC7568",
">. c #C45E5F",
",. c #D24650",
"<. c #C04E6C",
"1. c #CF7864",
"2. c #D27352",
"3. c #7B8250",
"4. c #4B837B",
"5. c #49837A",
"6. c #778766",
"7. c #619066",
"8. c #AE881E",
"9. c #AE8D30",
"0. c #D7B739",
"q. c #FFB529",
"w. c #FFF435",
"e. c #898755",
"r. c #BB8C59",
"t. c #968869",
"y. c #9BA376",
"u. c #94A57A",
"i. c #82A876",
"p. c #C1824C",
"a. c #CB9967",
"s. c #D88D79",
"d. c #FFF143",
"f. c #33469D",
"g. c #317292",
"h. c #1E48B6",
"j. c #266AA8",
"k. c #295CCD",
"l. c #377DC5",
"z. c #25269B",
"x. c #FF639F",
"c. c #4E8C81",
"v. c #569E8F",
"b. c #50998C",
"n. c #6D9984",
"m. c #609191",
"M. c #55A192",
"N. c #5AAD9C",
"B. c #56A09F",
"V. c #5EB19E",
"C. c #64AA95",
"Z. c #60B29D",
"A. c #5594A3",
"S. c #6B90A3",
"D. c #5CB5A3",
"F. c #5EBDA7",
"G. c #5EBEA8",
"H. c #5FAEB7",
"J. c #61BAA7",
"K. c #5DC2AD",
"L. c #5AC4B2",
"P. c #62C5AE",
"I. c #64C8AF",
"U. c #63C9B2",
"Y. c #408DD0",
"T. c #49A4C5",
"R. c #7CDAD4",
"E. c #71CDC6",
"W. c #6DE4DF",
"Q. c #6EE3E2",
"!. c #BF9580",
"~. c #AB9394",
"^. c #CE928E",
"/. c #D6968B",
"(. c #FF9780",
"). c #D8B5B3",
"_. c #CFA6A2",
"`. c #FFAFA5",
"'. c #FFB9AF",
"]. c #FFB6A7",
"[. c #FFCAB7",
"{. c #FFD1B3",
"}. c #83DCCE",
"|. c #81C4D0",
" X c #A9D5DC",
".X c #8FE1C8",
"XX c #A4ECCD",
"oX c #8BDEEB",
"OX c #AFD1E1",
"+X c #97ECEF",
"@X c #A8F2F5",
"#X c #DCD4C8",
"$X c #FFD3C2",
"%X c #F3DAD3",
"&X c #DBF5F6",
"*X c #E4E7E4",
"=X c #E5F5EE",
"-X c #E4F6F7",
";X c #FFFFFE",
/* pixels */
"F.F.F.F.F.F.F.F.F.F.F.F.F.F.F.F.F.F.F.F.F.F.F.F.F.F.F.F.F.F.F.F.",
"F.F.F.F.F.F.F.F.F.F.F.F.F.F.F.F.F.F.F.F.F.F.F.F.F.F.F.F.F.F.F.F.",
"F.F.F.F.F.F.F.F.F.F.F.F.F.F.P.P.P.P.G.F.F.F.F.F.F.F.F.F.F.F.F.F.",
"F.F.F.F.F.F.F.F.F.F.F.F.P.P.M.N B c.J.U.F.F.F.F.F.F.F.F.F.F.F.F.",
"F.F.F.F.F.F.F.F.F.F.G.P.c.; + + + . - 5.J.P.F.F.F.F.F.F.F.F.F.F.",
"F.F.F.F.F.F.F.F.F.P.D.; o 0 ,.0.0.,.q o - N.P.F.F.F.F.F.F.F.F.F.",
"F.F.F.F.F.F.F.F.K.F.; 2 | O.q.w.d.{.x.o.q - M.P.F.F.F.F.F.F.F.F.",
"F.F.F.F.F.F.F.G.J.; 2 #.@.] t r r z <.&.%.Z @ M.P.F.F.F.F.F.F.F.",
"F.F.F.F.F.F.F.U.N    .Z 9 @         . 8 ] O.% j U.F.F.F.F.F.F.F.",
"F.F.F.F.F.F.F.U.5.$ 0 & $ + o # # o o + @ C < k U.F.F.F.F.F.F.F.",
"F.F.F.F.F.F.F.L.6.V O S ' e & ) ) * e ` D O 5 c K.F.F.F.F.F.F.F.",
"F.F.F.F.F.F.K.6.W !.o ^.$Xz & ].[.> x [./.+ :.2.n.K.F.F.F.F.F.F.",
"F.F.F.F.F.F.L.c ! 1.O > _.).~.%X%X~.).).> X >._ 6.L.F.F.F.F.F.F.",
"F.F.F.F.F.F.G.D.Q ! X u z ^.'.`.`.'./.l u , T =.Z.G.F.F.F.F.F.F.",
"F.F.F.F.F.F.F.K.C.J # s.i * S A Y Y < w (.H I V.K.F.F.F.F.F.F.F.",
"F.F.F.F.F.F.F.F.K.n.L ~ 7             8 _ I C.K.F.F.F.F.F.F.F.F.",
"F.F.F.F.F.F.F.F.F.K.m.U ( w   X X   w / R n.K.F.F.F.F.F.F.F.F.F.",
"F.F.F.F.F.F.F.F.P.V.: C ! G 4 6 6 6 G ! { ; M.I.F.F.F.F.F.F.F.F.",
"F.F.F.F.F.F.F.K.N.- 9 +.[ 7.u.y.y.y.i.:.X.C ; M.P.F.F.F.F.F.F.F.",
"F.F.F.F.F.F.F.U.n < $.} S.oX+XW.Q.+X@X X;...1 n U.F.F.F.F.F.F.F.",
"F.F.F.F.F.F.F.F.e.Q { g. X;X=X}.R.=X;X-XE.o./ e.D.F.F.F.F.F.F.F.",
"F.F.F.F.F.F.L.6.-.*XP j OX;X=X}.R.&X;X&XH.L #Xa.3.L.F.F.F.F.F.F.",
"F.F.F.F.F.F.L.c -.-XP m A.S.B.B.R..XXX|.f.G *Xa.v L.F.F.F.F.F.F.",
"F.F.F.F.F.F.K.V.*.r.L h j.g.j.h.k.Y.T.l.z.G p.t.C.K.F.F.F.F.F.F.",
"F.F.F.F.F.F.F.K.C.p E d f z z b g b z s a *.*.C.K.F.F.F.F.F.F.F.",
"F.F.F.F.F.F.F.F.K.L.N = F ^ K F y K ^ H & m L.K.F.F.F.F.F.F.F.F.",
"F.F.F.F.F.F.F.F.P.N.@ 4 8.8.3     3 9.9.5 . c.P.F.F.F.F.F.F.F.F.",
"F.F.F.F.F.F.F.F.P.v.o                       4.I.F.F.F.F.F.F.F.F.",
"F.F.F.F.F.F.F.F.G.D.c.4.M M M M M M M 4.4.4.V.G.F.F.F.F.F.F.F.F.",
"F.F.F.F.F.F.F.F.F.G.P.P.P.P.P.P.P.P.P.P.P.P.G.F.F.F.F.F.F.F.F.F.",
"F.F.F.F.F.F.F.F.F.F.F.F.F.F.F.F.F.F.F.F.F.F.F.F.F.F.F.F.F.F.F.F.",
"F.F.F.F.F.F.F.F.F.F.F.F.F.F.F.F.F.F.G.F.F.F.F.F.F.F.F.F.F.F.F.F."
};
