/* XPM */
static char *e043d91dc0364a1da2ba0e95e4f7d4af[] = {
/* columns rows colors chars-per-pixel */
"32 32 187 2 ",
"   c #010001",
".  c #0B0708",
"X  c #150401",
"o  c #1A0704",
"O  c #1E0F13",
"+  c #0D1516",
"@  c #111318",
"#  c #250908",
"$  c #3B010D",
"%  c #320F09",
"&  c #2A0F12",
"*  c #2D1D10",
"=  c #311B18",
"-  c #3C1603",
";  c #392413",
":  c #0F2622",
">  c #122D2A",
",  c #19292A",
"<  c #1B2E30",
"1  c #1A3535",
"2  c #243837",
"3  c #323031",
"4  c #411C00",
"5  c #5E1E15",
"6  c #4C050F",
"7  c #621B17",
"8  c #743907",
"9  c #470A22",
"0  c #5C0623",
"q  c #700C27",
"w  c #78112D",
"e  c #70112F",
"r  c #6F2134",
"t  c #4C2E0D",
"y  c #28423E",
"u  c #594B3A",
"i  c #774539",
"p  c #7C753F",
"a  c #6F4D08",
"s  c #183F42",
"d  c #48355D",
"f  c #264C47",
"g  c #2F574E",
"h  c #2B5855",
"j  c #2F665E",
"k  c #3B6A67",
"l  c #3D6C68",
"z  c #336B62",
"x  c #755B56",
"c  c #76656E",
"v  c #AA3118",
"b  c #86173D",
"n  c #8F3E30",
"m  c #8F3129",
"M  c #B73A28",
"N  c #B53D34",
"B  c #C13118",
"V  c #975708",
"C  c #8C5511",
"Z  c #965A12",
"A  c #A65A0D",
"S  c #9D790F",
"D  c #996017",
"F  c #A3671D",
"G  c #9D5C28",
"H  c #BD4D20",
"J  c #B7443B",
"K  c #B35E32",
"L  c #B75C2B",
"P  c #876F36",
"I  c #A66A3D",
"U  c #D7651F",
"Y  c #D54835",
"T  c #E94B27",
"R  c #B41B5C",
"E  c #B12B52",
"W  c #A72343",
"Q  c #AA1169",
"!  c #CC185B",
"~  c #F91A5E",
"^  c #FC265D",
"/  c #F91965",
"(  c #EB1666",
")  c #F42361",
"_  c #CE1870",
"`  c #896A44",
"'  c #89795F",
"]  c #A46554",
"[  c #A44967",
"{  c #8A756B",
"}  c #9B786C",
"|  c #A9756A",
" . c #8B494F",
".. c #DA5D5A",
"X. c #FF5F4E",
"o. c #EC595E",
"O. c #CF6544",
"+. c #D6785B",
"@. c #E9615E",
"#. c #FF5164",
"$. c #F97969",
"%. c #73825C",
"&. c #428076",
"*. c #5F8E7D",
"=. c #7D8F76",
"-. c #BF8D18",
";. c #A89C05",
":. c #A7823B",
">. c #FFC23F",
",. c #96855A",
"<. c #ACA456",
"1. c #D09C58",
"2. c #EC8855",
"3. c #D2936B",
"4. c #F69B7A",
"5. c #F68E6A",
"6. c #CFA07D",
"7. c #3E3F82",
"8. c #194E96",
"9. c #2E558F",
"0. c #3D718C",
"q. c #1245A5",
"w. c #2D54AB",
"e. c #1B68AD",
"r. c #2178B0",
"t. c #406D9B",
"y. c #43789C",
"u. c #427EA4",
"i. c #4276B5",
"p. c #3B6ED4",
"a. c #776EC6",
"s. c #3A8B9C",
"d. c #1A80BC",
"f. c #488A85",
"g. c #5E8F80",
"h. c #4D9488",
"j. c #529589",
"k. c #519286",
"l. c #58A898",
"z. c #5BB29F",
"x. c #5DB5A1",
"c. c #5EBDA7",
"v. c #5EBDA9",
"b. c #61BAA6",
"n. c #61BFA9",
"m. c #69B0A6",
"M. c #5EC2AB",
"N. c #5BC6B4",
"B. c #5ACAB5",
"V. c #64C6A6",
"C. c #62C3AC",
"Z. c #66C8AF",
"A. c #64C6B0",
"S. c #65C9B1",
"D. c #228ACB",
"F. c #40A2C0",
"G. c #58CCC6",
"H. c #68CAC4",
"J. c #A48F85",
"K. c #BCA99B",
"L. c #CD9481",
"P. c #CCBF9B",
"I. c #D3BA99",
"U. c #D4AC8B",
"Y. c #FFBF87",
"T. c #FFB094",
"R. c #FDA99A",
"E. c #E0BDAD",
"W. c #FFBFAC",
"Q. c #EABEB1",
"!. c #FFC2A9",
"~. c #FFCDBE",
"^. c #FFC2B1",
"/. c #EBCBB3",
"(. c #919ED5",
"). c #B2A6E1",
"_. c #AAC7D0",
"`. c #A5D2ED",
"'. c #85F0EA",
"]. c #AAFFEE",
"[. c #B0F0EA",
"{. c #ADEFF2",
"}. c #C1D9E7",
"|. c #D8FCFA",
" X c #FEFDFE",
".X c #F1F4F7",
"XX c #FFF6E7",
/* pixels */
"c.c.c.c.c.c.c.c.c.c.c.c.c.c.c.c.c.c.c.c.c.c.c.c.c.c.c.c.c.c.c.c.",
"c.c.c.c.c.c.c.c.c.c.c.c.c.c.c.c.c.c.c.c.c.c.c.c.c.c.c.c.c.c.c.c.",
"c.c.c.c.c.c.c.c.c.c.c.c.c.c.c.c.c.c.c.c.c.c.c.c.c.c.c.c.c.c.c.c.",
"c.c.c.c.c.c.c.c.c.c.c.C.C.C.C.C.S.M.c.c.c.c.c.c.c.c.c.c.c.c.c.c.",
"c.c.c.c.c.c.c.c.c.c.C.&.> > > > z x.S.c.c.c.c.c.c.c.c.c.c.c.c.c.",
"c.c.c.c.c.c.c.c.c.C.f.# e r w q 6 + j b.C.c.c.c.c.c.c.c.c.c.c.c.",
"c.c.c.c.c.c.c.c.c.C.: [ Y.>.#./ ) W $ > x.C.c.c.c.c.c.c.c.c.c.c.",
"c.c.c.c.c.c.c.c.S.f.  c <.;.F R ( ~ ^ w > x.C.c.c.c.c.c.c.c.c.c.",
"c.c.c.c.c.c.c.C.j.+           . b ! ~ / 0 > b.c.c.c.c.c.c.c.c.c.",
"c.c.c.c.c.c.M.z.@                 . e ! ( $ f S.c.c.c.c.c.c.c.c.",
"c.c.c.c.c.c.v.c.j.h.f.] 5 % v # B o   .  .]   j.C.c.c.c.c.c.c.c.",
"c.c.c.c.c.c.c.c.B.' G 4.i = +.O 4.Y o u I 1.i < C.c.c.c.c.c.c.c.",
"c.c.c.c.c.c.c.v.=.3.3./.K.J.E.} Q.n X } 2.U O.. l.C.c.c.c.c.c.c.",
"c.c.c.c.c.c.v.c.K T.~.W.^.!.R.U.~.x   { 5.T 5   l.C.c.c.c.c.c.c.",
"c.c.c.c.c.c.c.M.' M J J J N m . { !.i | $.7   y C.c.c.c.c.c.c.c.",
"c.c.c.c.c.c.c.c.v.2           o & L.$.X.m   2 b.v.c.c.c.c.c.c.c.",
"c.c.c.c.c.c.c.c.C.x.< . .   = ..o.@.L C - 1 n.M.c.c.c.c.c.c.c.c.",
"c.c.c.c.c.c.c.c.c.n.c.*.7.d V A A Z E 9 : z.M.c.c.c.c.c.c.c.c.c.",
"c.c.c.c.c.c.c.c.c.c.V.i.p.H.m.s.f.Y _ Q 9 h A.c.c.c.c.c.c.c.c.c.",
"c.c.c.c.c.c.c.c.c.V.u.a.[.'.|.`.D.H M M 6 s A.c.c.c.c.c.c.c.c.c.",
"c.c.c.c.c.c.c.c.v.V.w.).|.{. XXX,.U.I.P.` u A.c.c.c.c.c.c.c.c.c.",
"c.c.c.c.c.c.c.c.c.V.w.(.].'.}._.:.U. X XU.P N.c.c.c.c.c.c.c.c.c.",
"c.c.c.c.c.c.c.c.c.V.y.i.G.F.e.r.d.A /. X6.p N.b.c.c.c.c.c.c.c.c.",
"c.c.c.c.c.c.c.c.c.c.V.t.q.8.9.9.0.D I..X3.%.N.b.c.c.c.c.c.c.c.c.",
"c.c.c.c.c.c.c.c.c.c.M.g.3 t 8 ; V V Z Z ` c.c.c.c.c.c.c.c.c.c.c.",
"c.c.c.c.c.c.c.c.c.c.Z.h a S * -.V C C 4 g S.c.c.c.c.c.c.c.c.c.c.",
"c.c.c.c.c.c.c.c.c.c.Z.2 X X   # X X X   f S.c.c.c.c.c.c.c.c.c.c.",
"c.c.c.c.c.c.c.c.c.c.C.k.l l l k k l l l j.C.c.c.c.c.c.c.c.c.c.c.",
"c.c.c.c.c.c.c.c.c.c.c.C.S.S.S.S.S.S.S.S.C.c.c.c.c.c.c.c.c.c.c.c.",
"c.c.c.c.c.c.c.c.c.c.c.c.c.c.c.c.c.c.c.c.c.c.c.c.c.c.c.c.c.c.c.c.",
"c.c.c.c.c.c.c.c.c.c.c.c.c.c.c.c.c.c.c.c.c.c.c.c.c.c.c.c.c.c.c.c.",
"c.c.c.c.c.c.c.c.c.c.c.c.c.c.c.c.c.c.c.c.c.c.c.c.c.c.c.c.c.c.c.c."
};
