/* XPM */
static char *_ab8a054b72844909cf8feed7cd35900[] = {
/* columns rows colors chars-per-pixel */
"32 32 171 2 ",
"   c #020101",
".  c #0B0204",
"X  c #0C0A0C",
"o  c #07030A",
"O  c #17030F",
"+  c #180609",
"@  c #151113",
"#  c #2D0A00",
"$  c #3F1800",
"%  c #3C011C",
"&  c #2D161F",
"*  c #332715",
"=  c #000038",
"-  c #230334",
";  c #192820",
":  c #1A302A",
">  c #1F3C3C",
",  c #052624",
"<  c #2E3B39",
"1  c #4D0404",
"2  c #410A16",
"3  c #5B091D",
"4  c #730100",
"5  c #4C2502",
"6  c #5B2901",
"7  c #5E3000",
"8  c #47321D",
"9  c #4D2A16",
"0  c #603508",
"q  c #722E13",
"w  c #652812",
"e  c #5E033D",
"r  c #661225",
"t  c #6D0E34",
"y  c #6F0E38",
"u  c #621039",
"i  c #751038",
"p  c #740C2B",
"a  c #752227",
"s  c #2E463B",
"d  c #6D420B",
"f  c #7B4504",
"g  c #535A34",
"h  c #7E422F",
"j  c #000056",
"k  c #300149",
"l  c #1F2959",
"z  c #161F75",
"x  c #1C1C68",
"c  c #09257F",
"v  c #3E336E",
"b  c #212478",
"n  c #771454",
"m  c #41316D",
"M  c #264947",
"N  c #2A524A",
"B  c #2B5A53",
"V  c #335858",
"C  c #36675F",
"Z  c #335F60",
"A  c #356D63",
"S  c #3C796D",
"D  c #3D7D72",
"F  c #49494A",
"G  c #444E5C",
"H  c #566E46",
"J  c #51586F",
"K  c #685E69",
"L  c #437C6D",
"P  c #852206",
"I  c #A92807",
"U  c #981637",
"Y  c #9C2031",
"T  c #844806",
"R  c #9C5500",
"E  c #9B4914",
"W  c #A85C00",
"Q  c #8C602D",
"!  c #987230",
"~  c #8B6B39",
"^  c #E0550C",
"/  c #D65B25",
"(  c #8E1843",
")  c #A01A49",
"_  c #CB2D51",
"`  c #D82C55",
"'  c #DD305A",
"]  c #EA335D",
"[  c #CB1C6B",
"{  c #FD2C64",
"}  c #FF2A69",
"|  c #F02667",
" . c #EA3161",
".. c #FC3564",
"X. c #FC3A66",
"o. c #FC316A",
"O. c #FD3C6A",
"+. c #9C4C43",
"@. c #8D7755",
"#. c #AC784E",
"$. c #E97F52",
"%. c #FF4070",
"&. c #488779",
"*. c #788464",
"=. c #D79E28",
"-. c #D0A532",
";. c #838248",
":. c #AF8359",
">. c #E5885F",
",. c #1B319A",
"<. c #233E9A",
"1. c #1734AA",
"2. c #2134AF",
"3. c #493297",
"4. c #254C8D",
"5. c #304B8B",
"6. c #2F579A",
"7. c #1E6498",
"8. c #276989",
"9. c #3A728C",
"0. c #3B7B98",
"q. c #2740BA",
"w. c #3567AE",
"e. c #326FAC",
"r. c #45789C",
"t. c #415CA3",
"y. c #5353AE",
"u. c #4567B1",
"i. c #3E80B3",
"p. c #53848E",
"a. c #43938A",
"s. c #559D90",
"d. c #51949E",
"f. c #57A193",
"g. c #56AA99",
"h. c #5AAB9B",
"j. c #5AA99B",
"k. c #5BB09E",
"l. c #62AD96",
"z. c #4780A6",
"x. c #4195A4",
"c. c #4186B0",
"v. c #4990BB",
"b. c #5D9EB4",
"n. c #5CA9AB",
"m. c #5BB3A1",
"M. c #5EBDA7",
"N. c #5EBFA9",
"B. c #55B5A8",
"V. c #4DAFB4",
"C. c #56BBB1",
"Z. c #5CA9B6",
"A. c #61BEAA",
"S. c #64AEBF",
"D. c #5DC1AC",
"F. c #59C2B2",
"G. c #61C3AC",
"H. c #65CCAD",
"J. c #69D3AF",
"K. c #64C6B1",
"L. c #65C9B2",
"P. c #6ED1B9",
"I. c #79DDBE",
"U. c #67D0CC",
"Y. c #7AD9C5",
"T. c #74DAC9",
"R. c #67D0D0",
"E. c #6ACACB",
"W. c #73E6D6",
"Q. c #87D5AE",
"!. c #A8DDAB",
/* pixels */
"M.M.M.M.M.M.M.M.M.M.M.M.M.M.M.M.M.M.M.M.M.M.M.M.M.M.M.M.M.M.M.M.",
"M.M.M.M.M.M.M.M.M.M.M.M.M.M.M.M.M.M.M.M.M.M.M.M.M.M.M.M.M.M.M.M.",
"M.M.M.M.M.M.M.M.M.M.M.M.M.M.M.M.M.M.M.M.M.M.M.M.M.M.M.M.M.M.M.M.",
"M.M.M.M.M.M.M.M.M.M.M.M.M.M.G.G.G.G.M.M.M.M.M.M.M.M.M.M.M.M.M.M.",
"M.M.M.M.M.M.M.M.M.M.M.M.G.L.g.&.&.g.L.G.M.M.M.M.M.M.M.M.M.M.M.M.",
"M.M.M.M.M.M.M.M.M.M.M.K.g.N @ + + X B h.G.M.M.M.M.M.M.M.M.M.M.M.",
"M.M.M.M.M.M.M.M.M.M.K.C @ r ` ] ] _ 2 X S L.M.M.M.M.M.M.M.M.M.M.",
"M.M.M.M.M.M.M.M.M.G.N r ' O.O.O.O.%.O._ 2 A G.M.M.M.M.M.M.M.M.M.",
"M.M.M.M.M.M.M.M.K.B 3 O.O.X.X.O.O.X.X.O.' + L G.M.M.M.M.M.M.M.M.",
"M.M.M.M.M.M.M.M.G., U O...X.O.O.O.O.O.X.| % M L.M.M.M.M.M.M.M.M.",
"M.M.M.M.M.M.M.M.A.g Y o.X.X.O.X.O.O.X. .[ a H K.M.M.M.M.M.M.M.M.",
"M.M.M.M.M.M.M.M.F.! 5 ) } ....X.X.X.o.[ n 6 ;.F.M.M.M.M.M.M.M.M.",
"M.M.M.M.M.M.M.N.h.#.* O t ) { { { } ( u o 8 :.l.N.M.M.M.M.M.M.M.",
"M.M.M.M.M.M.M.F.Q >.F     O t y i t o     K $.~ F.M.M.M.M.M.M.M.",
"M.M.M.M.M.M.M.D.*.^ w                     h / *.D.M.M.M.M.M.M.M.",
"M.M.M.M.M.M.M.M.F.@.E 9               . q E *.D.M.M.M.M.M.M.M.M.",
"M.M.M.M.M.M.M.M.M.M.p.+.P           o I +.j.D.M.M.M.M.M.M.M.M.M.",
"M.M.M.M.M.M.M.M.M.A.M . F C.D   X a.8.& . Z G.M.M.M.M.M.M.M.M.M.",
"M.M.M.M.M.M.M.M.G.B 4 e w.W.Q.=.-.I.x.c p 1 A L.M.M.M.M.M.M.M.M.",
"M.M.M.M.M.M.M.M.G.: k y.E.Y.Y.!.!.T.L.0.3.- N L.M.M.M.M.M.M.M.M.",
"M.M.M.M.M.M.M.M.G.; j w.n.b.S.R.U.Z.e.4.1.= s L.M.M.M.M.M.M.M.M.",
"M.M.M.M.M.M.M.M.G.L x 6.B.z.u.I.P.t.<.4.,.l &.G.M.M.M.M.M.M.M.M.",
"M.M.M.M.M.M.M.M.M.L.d.r.V.c.q.v.i.2.7.8.5.n.H.M.M.M.M.M.M.M.M.M.",
"M.M.M.M.M.M.M.M.M.m.J.9.b J v m m v G z r.H.M.M.M.M.M.M.M.M.M.M.",
"M.M.M.M.M.M.M.M.M.N.j.< 7 W R f T R R 5 V m.N.M.M.M.M.M.M.M.M.M.",
"M.M.M.M.M.M.M.M.M.L.> $ T f 0   . d f f # V L.M.M.M.M.M.M.M.M.M.",
"M.M.M.M.M.M.M.M.M.G.M   X X X X X X X X . C L.M.M.M.M.M.M.M.M.M.",
"M.M.M.M.M.M.M.M.M.N.k.s.s.s.s.s.s.s.s.f.f.m.N.M.M.M.M.M.M.M.M.M.",
"M.M.M.M.M.M.M.M.M.M.D.G.G.G.G.G.G.G.G.G.G.N.M.M.M.M.M.M.M.M.M.M.",
"M.M.M.M.M.M.M.M.M.M.M.M.M.M.M.M.M.M.M.M.M.M.M.M.M.M.M.M.M.M.M.M.",
"M.M.M.M.M.M.M.M.M.M.M.M.M.M.M.M.M.M.M.M.M.M.M.M.M.M.M.M.M.M.M.M.",
"M.M.M.M.M.M.M.M.M.M.M.M.M.M.M.M.M.M.M.M.M.M.M.M.M.M.M.M.M.M.M.M."
};
