/* XPM */
static char *a746c7cc88c1431e81b6208a8c2e14d9[] = {
/* columns rows colors chars-per-pixel */
"32 32 54 1 ",
"  c #5EBDA7",
". c #47907F",
"X c #264C43",
"o c #53A693",
"O c #408172",
"+ c #5D6866",
"@ c gray80",
"# c #384744",
"$ c #4B9786",
"% c gray40",
"& c #FDF199",
"* c #FADD00",
"= c #E5B60E",
"- c black",
"; c #849798",
": c #468375",
"> c #848270",
", c #FEF9A2",
"< c #E0DC45",
"1 c #E0B915",
"2 c #2D2204",
"3 c #77777C",
"4 c #7BA19C",
"5 c gray20",
"6 c #FCEB66",
"7 c #C8B100",
"8 c #E0AC12",
"9 c #1C1C1E",
"0 c #829999",
"q c #66B5A4",
"w c #8E8E94",
"e c #71AA9F",
"r c #3D5B54",
"t c #C0B45C",
"y c #FCEA47",
"u c #A3A156",
"i c #D4B50B",
"p c #86670B",
"a c #4A4A4D",
"s c #645800",
"d c #FBE10A",
"f c #FCE818",
"g c #E6B813",
"h c #56AE9A",
"j c #4A673C",
"k c #9A8204",
"l c #EAC00B",
"z c #775D08",
"x c #555559",
"c c #3F6852",
"v c #64625F",
"b c #75A69E",
"n c #8C9095",
"m c #7D9F9B",
/* pixels */
"                                ",
"                                ",
"                                ",
"                                ",
"                                ",
"                                ",
"                                ",
"                                ",
"                                ",
"              .Xo               ",
"             O+@#               ",
"            $%&*=-;             ",
"            :>,<1234            ",
"            5&6%7894            ",
"            5&6%7890q           ",
"            5&6%789we           ",
"            5&6%789we           ",
"            5&6%789we           ",
"            5&6%789we           ",
"            rtyuipawe           ",
"            $sdfg-wwe           ",
"            hjklzxw0q           ",
"             hc2vww4            ",
"               bnwm             ",
"                m;              ",
"                                ",
"                                ",
"                                ",
"                                ",
"                                ",
"                                ",
"                                "
};
