/* XPM */
static char *_5a52bd046fc4017b26e0a07d4cf0e80[] = {
/* columns rows colors chars-per-pixel */
"32 32 66 1 ",
"  c #5EBDA7",
". c #47907F",
"X c #264C43",
"o c #132621",
"O c #5D6866",
"+ c gray80",
"@ c #22443C",
"# c black",
"$ c white",
"% c #FDF199",
"& c #FADD00",
"* c #B38A0E",
"= c #4F9F8C",
"- c gray20",
"; c #FDF4A6",
": c #FDEC2F",
"> c #FFFC92",
", c #FEFAD1",
"< c #D6D150",
"1 c #FBE30C",
"2 c #C0980C",
"3 c #484232",
"4 c #6C9991",
"5 c #62B9A5",
"6 c #FFFB8B",
"7 c #FFFDB1",
"8 c #FCE818",
"9 c #322C00",
"0 c #FFF93D",
"q c #F5D304",
"w c #86670B",
"e c #555559",
"r c #71AA9F",
"t c #7D9F9B",
"y c #8E8E94",
"u c #68B4A3",
"i c #316257",
"p c gray60",
"a c #FFFA6C",
"s c #D5CD6A",
"d c #968500",
"f c #706A14",
"g c #FDEE25",
"h c #DBB608",
"j c #67551E",
"k c #6C6C70",
"l c #FADF05",
"z c #D3C00F",
"x c #E8D414",
"c c #EAC00B",
"v c #39393B",
"b c #387164",
"n c #645800",
"m c #9A8204",
"M c #5A4507",
"N c #594818",
"B c #4B9786",
"V c #3F6852",
"C c #2D2204",
"Z c #727276",
"A c #77777C",
"S c #6DAEA1",
"D c #8A9296",
"F c #8C9095",
"G c #849798",
"H c #75A69E",
/* pixels */
"                                ",
"                                ",
"                                ",
"                                ",
"                                ",
"                                ",
"                                ",
"                                ",
"                                ",
"             .XXX               ",
"            oO+++o@             ",
"           #$%&&&&*X            ",
"          =-;:>,<12345          ",
"          o$167890qwer          ",
"          o$167890qwet5         ",
"          o$167890qweyu         ",
"          o$167890qweyu         ",
"          o$167890qweyu         ",
"          o$16%&90qweyu         ",
"          ip1asdfghjkyu         ",
"           #l8zdxc*vyyu         ",
"           bnmcccMNkyt5         ",
"            BVCCCZAyyr          ",
"              SDyyFGS           ",
"               HGGt             ",
"                                ",
"                                ",
"                                ",
"                                ",
"                                ",
"                                ",
"                                "
};
