/* XPM */
static char *d9ff31e19bd64f4f89225da1672b12c8[] = {
/* columns rows colors chars-per-pixel */
"32 32 11 1 ",
"  c #5EBDA7",
". c #47907F",
"X c #264C43",
"o c #53A693",
"O c #387164",
"+ c black",
"@ c #4B9786",
"# c #727276",
"$ c #8E8E94",
"% c #849798",
"& c #7D9F9B",
/* pixels */
"                                ",
"                                ",
"                                ",
"                                ",
"                                ",
"                                ",
"                                ",
"                                ",
"                                ",
"              .Xo               ",
"              O+@               ",
"              O+#$              ",
"              O+#$              ",
"              O+#$              ",
"              O+#$              ",
"              O+#$              ",
"              O+#$              ",
"              O+#$              ",
"              O+#$              ",
"              O+#$              ",
"              O+#$              ",
"              O+#$              ",
"              O+#$              ",
"                %$              ",
"                &%              ",
"                                ",
"                                ",
"                                ",
"                                ",
"                                ",
"                                ",
"                                "
};
