/* XPM */
static char *d7138e3271b644899140ea51df2c1d59[] = {
/* columns rows colors chars-per-pixel */
"32 32 46 1 ",
"  c #5EBDA7",
". c #47907F",
"X c #264C43",
"o c #53A693",
"O c #408172",
"+ c #5D6866",
"@ c gray80",
"# c #384744",
"$ c #387164",
"% c #645800",
"& c #FADD00",
"* c #322C00",
"= c #8E8E94",
"- c #5AB5A0",
"; c #426F65",
": c #858237",
"> c #FEF636",
", c #574C0D",
"< c #727276",
"1 c #849798",
"2 c #4B9786",
"3 c gray40",
"4 c #FFFDB1",
"5 c #FCE818",
"6 c #E5B60E",
"7 c black",
"8 c #889496",
"9 c #6AB2A2",
"0 c #7BA19C",
"q c #546B65",
"w c #C2BF74",
"e c #FDEF27",
"r c #9E810E",
"t c #39393B",
"y c #655D0A",
"u c #322E05",
"i c #5E4D04",
"p c #EAC00B",
"a c #2F2602",
"s c #56AE9A",
"d c #3F6852",
"f c #2D2204",
"g c #64625F",
"h c #75A69E",
"j c #8C9095",
"k c #7D9F9B",
/* pixels */
"                                ",
"                                ",
"                                ",
"                                ",
"                                ",
"                                ",
"                                ",
"                                ",
"                                ",
"              .Xo               ",
"             O+@#               ",
"             $%&*=              ",
"            -;:>,<1             ",
"            2345671             ",
"            23456789            ",
"            234567=0            ",
"            234567=0            ",
"            234567=0            ",
"            234567=0            ",
"            oqwert=0            ",
"             $y5u==0            ",
"             $ipa=89            ",
"             sdfg=1             ",
"               hj=k             ",
"                k1              ",
"                                ",
"                                ",
"                                ",
"                                ",
"                                ",
"                                ",
"                                "
};
