/* XPM */
static char *_b38d63af6d84624a7ce8c678e0080f0[] = {
/* columns rows colors chars-per-pixel */
"32 32 62 1 ",
"  c #5EBDA7",
". c #47907F",
"X c #264C43",
"o c #53A693",
"O c #4F9F8C",
"+ c #132621",
"@ c #5D6866",
"# c gray80",
"$ c #384744",
"% c gray20",
"& c white",
"* c #FDF199",
"= c #FADD00",
"- c #E0AC12",
"; c #1C1C1E",
": c #7BA19C",
"> c #4B9786",
", c #5C5A52",
"< c #FDF07F",
"1 c #FDEC2F",
"2 c #E0DC45",
"3 c #F2DD14",
"4 c #E5B60E",
"5 c #3B321B",
"6 c #7D7D82",
"7 c #71AA9F",
"8 c black",
"9 c #FEF8CC",
"0 c #FCE818",
"q c #FFFB8B",
"w c gray40",
"e c #CCC731",
"r c #B38A0E",
"t c #39393B",
"y c #7D9F9B",
"u c #66B5A4",
"i c #8E8E94",
"p c #ACA77A",
"a c #FFFA6C",
"s c #A3A156",
"d c #DFD222",
"f c #F0C907",
"g c #775E14",
"h c #5B5B5F",
"j c #322C00",
"k c #FBE10A",
"l c #EEC80E",
"z c #416C50",
"x c #645800",
"c c #9A8204",
"v c #EAC00B",
"b c #775D08",
"n c #5A4507",
"m c #616165",
"M c #5AB5A0",
"N c #3F6852",
"B c #2D2204",
"V c #64625F",
"C c #727276",
"Z c #75A69E",
"A c #8C9095",
"S c #849798",
/* pixels */
"                                ",
"                                ",
"                                ",
"                                ",
"                                ",
"                                ",
"                                ",
"                                ",
"                                ",
"              .Xo               ",
"            O+@#$+              ",
"            %&*==-;:            ",
"           >,<1234567           ",
"           890qwe=rt7           ",
"           890qwe=rtyu          ",
"           890qwe=rti7          ",
"           890qwe=rti7          ",
"           890qwe=rti7          ",
"           890qwe=rti7          ",
"           Xp0asdfghi7          ",
"            jk00l-;ii7          ",
"            zxcvbnmiyu          ",
"            M>NBVCii7           ",
"               ZAiSZ            ",
"                yS              ",
"                                ",
"                                ",
"                                ",
"                                ",
"                                ",
"                                ",
"                                "
};
