/* XPM */
static char *_c7f22bc065f4461994d374f95006c38[] = {
/* columns rows colors chars-per-pixel */
"32 32 136 2 ",
"   c #5EBDA7",
".  c #4FA187",
"X  c #42896B",
"o  c #428A6A",
"O  c #42896A",
"+  c #43896B",
"@  c #428A6B",
"#  c #418A6A",
"$  c #5CB9A2",
"%  c #397A59",
"&  c #769273",
"*  c #9BB098",
"=  c #9CB199",
"-  c #7CB276",
";  c #90B08E",
":  c #68B460",
">  c #8CB187",
",  c #9AB097",
"<  c #97AE94",
"1  c #9CB099",
"2  c #98AE95",
"3  c #6CAF65",
"4  c #5FB056",
"5  c #379B2F",
"6  c #5CAE54",
"7  c #5EAE57",
"8  c #2E9625",
"9  c #3FA037",
"0  c #2D6129",
"q  c #58B39B",
"w  c #42A937",
"e  c #8CE982",
"r  c #93EC89",
"t  c #8EEC85",
"y  c #91EC88",
"u  c #8BEC81",
"i  c #90EC87",
"p  c #7EE275",
"a  c #63D559",
"s  c #92ED8B",
"d  c #5DD252",
"f  c #67D65D",
"g  c #3CC42F",
"h  c #3AC42C",
"j  c #30AD2E",
"k  c #37B830",
"l  c #32AA34",
"z  c #2BA72D",
"x  c #31B32C",
"c  c #24681D",
"v  c #59B39B",
"b  c #3A7A59",
"n  c #38A72C",
"m  c #84E979",
"M  c #75E16A",
"N  c #58D34C",
"B  c #8BED83",
"V  c #50D045",
"C  c #5CD551",
"Z  c #33C025",
"A  c #33C024",
"S  c #2EAA2C",
"D  c #2FB329",
"F  c #2AA42D",
"G  c #2EB029",
"H  c #22671B",
"J  c #3A7959",
"K  c #38A62C",
"L  c #84E97A",
"P  c #8BEC82",
"I  c #75E16B",
"U  c #57D44B",
"Y  c #4FD043",
"T  c #5BD550",
"R  c #2EAB2C",
"E  c #2EB329",
"W  c #22661B",
"Q  c #3A795A",
"!  c #298C27",
"~  c #3DBB33",
"^  c #3FBE33",
"/  c #3FBE34",
"(  c #3AB632",
")  c #35AB2F",
"_  c #3EBF31",
"`  c #34A92F",
"'  c #35AD2F",
"]  c #2C9F2C",
"[  c #2C8827",
"{  c #2C9128",
"}  c #2D8125",
"|  c #2D8124",
" . c #2B8E27",
".. c #205C1F",
"X. c #459172",
"o. c #2E6D41",
"O. c #20571D",
"+. c #23721D",
"@. c #25771C",
"#. c #24761D",
"$. c #24701D",
"%. c #24741C",
"&. c #216B20",
"*. c #216A20",
"=. c #216720",
"-. c #22651F",
";. c #235D1D",
":. c #235B1D",
">. c #205E1C",
",. c #255A2B",
"<. c #306E46",
"1. c #5AB69F",
"2. c #55AE94",
"3. c #256926",
"4. c #50CA45",
"5. c #66DA5A",
"6. c #66DA5B",
"7. c #50CB47",
"8. c #58D14E",
"9. c #59D14E",
"0. c #30B527",
"q. c #2FAD28",
"w. c #2FA72A",
"e. c #2D992A",
"r. c #2C952A",
"t. c #2A9523",
"y. c #377A53",
"u. c #56AE95",
"i. c #266C25",
"p. c #67DA5B",
"a. c #66DB5C",
"s. c #32B927",
"d. c #30B429",
"f. c #2BA82D",
"g. c #2C9F22",
"h. c #387A53",
/* pixels */
"                                                                ",
"                                                                ",
"                                                                ",
"                                                                ",
"                                                                ",
"                                                                ",
"                                                                ",
"                                                                ",
"                                                                ",
"                                                                ",
"                                                                ",
"        . X o o o o O X + X o o o o o X + + O @ + X @ # $       ",
"        % & * = = = - ; : > , < 1 < 2 3 4 4 5 6 7 8 9 0 q       ",
"        % w e r r r t y u i p a s d f g h h j k l z x c v       ",
"        b n m u u u u u u u M N B V C Z A A S D F F G H v       ",
"        b n m u u u u u u u M N B V C Z A A S D F F G H v       ",
"        b n m u u u u u u u M N B V C Z A A S D F F G H v       ",
"        J K L P P P P P P P I U P Y T Z Z Z R E F F G W v       ",
"        Q ! ~ ^ / / / / / / ( ) _ ` ' ] ] ] [ { } |  ...v       ",
"        X.o.O.+.@.@.@.@.@.@.#.$.%.+.&.*.=.-.;.;.:.>.,.<.1.      ",
"          2.3.4.5.5.5.5.5.5.6.7.8.9.0.0.q.w.e.r.r.t.y.          ",
"          u.i.p.u u u u u u u a.M M A A s.d.f.F F g.h.          ",
"          u.i.p.u u u u u u u a.M M A A s.d.f.F F g.h.          ",
"          u.i.p.u u u u u u u a.M M A A s.d.f.F F g.h.          ",
"          u.i.p.u u u u u u u a.M M A A s.d.f.F F g.h.          ",
"          u.i.p.u u u u u u u a.M M A A s.d.f.F F g.h.          ",
"          u.i.p.u u u u u u u a.M M A A s.d.f.F F g.h.          ",
"          u.i.p.u u u u u u u a.M M A A s.d.f.F F g.h.          ",
"          u.i.p.u u u u u u u a.M M A A s.d.f.F F g.h.          ",
"          u.i.p.u u u u u u u a.M M A A s.d.f.F F g.h.          ",
"          u.i.p.u u u u u u u a.M M A A s.d.f.F F g.h.          ",
"          u.i.p.u u u u u u u a.M M A A s.d.f.F F g.h.          "
};
