/* XPM */
static char *_1a7a55272604fffa8c6626a3e220980[] = {
/* columns rows colors chars-per-pixel */
"32 32 155 2 ",
"   c #AC6502",
".  c #A96905",
"X  c #AD6509",
"o  c #A86B08",
"O  c #BB7504",
"+  c #A26713",
"@  c #A06816",
"#  c #C37E04",
"$  c #72BA7F",
"%  c #BD850C",
"&  c #BD9325",
"*  c #A08F39",
"=  c #C68206",
"-  c #C88706",
";  c #CE8F07",
":  c #C9850A",
">  c #CE8F09",
",  c #D08E02",
"<  c #CE9206",
"1  c #C7920A",
"2  c #CD9009",
"3  c #D29001",
"4  c #DD9C03",
"5  c #D59309",
"6  c #D99809",
"7  c #C69212",
"8  c #CA9015",
"9  c #C1931C",
"0  c #CA9219",
"q  c #E19C0A",
"w  c #DCA006",
"e  c #DBA31B",
"r  c #E3A506",
"t  c #E7A807",
"y  c #EDAE06",
"u  c #E4A408",
"i  c #F1AF06",
"p  c #F0AF08",
"a  c #EFB105",
"s  c #EDB30B",
"d  c #F0B205",
"f  c #F0B30A",
"g  c #F2B80E",
"h  c #EEB513",
"j  c #EFB914",
"k  c #F5BE14",
"l  c #F1B619",
"z  c #C39123",
"x  c #EDBE33",
"c  c #ECBE3B",
"v  c #F5C016",
"b  c #F6C51C",
"n  c #F8C51B",
"m  c #F8C721",
"M  c #F7C927",
"N  c #FBCB24",
"B  c #F7CB2D",
"V  c #FDCF2B",
"C  c #FED22C",
"Z  c #ECC13C",
"A  c #F3C737",
"S  c #FCCE32",
"D  c #F7D134",
"F  c #FBD133",
"G  c #F6D13A",
"H  c #F9D238",
"J  c #849A5F",
"K  c #97A958",
"L  c #849960",
"P  c #8BAB66",
"I  c #93A960",
"U  c #DCB35C",
"Y  c #EABF44",
"T  c #DFB760",
"R  c #EBC442",
"E  c #EFC74A",
"W  c #F1C649",
"Q  c #F6D140",
"!  c #FBD74D",
"~  c #FAD94E",
"^  c #EFC75B",
"/  c #F1C759",
"(  c #F7D556",
")  c #FAD750",
"_  c #F6D55A",
"`  c #ECC763",
"'  c #EFCA61",
"]  c #E9C568",
"[  c #FAD962",
"{  c #F8DA6C",
"}  c #F7D974",
"|  c #F4DC7C",
" . c #FEE773",
".. c #FEE77A",
"X. c #65BB97",
"o. c #6DB893",
"O. c #62BB9E",
"+. c #6BB999",
"@. c #64B9A4",
"#. c #EACE89",
"$. c #EDD386",
"%. c #EBD48E",
"&. c #F5D98E",
"*. c #F1DE99",
"=. c #FEE782",
"-. c #EEDEB1",
";. c #EFE2B5",
":. c #EEE3BC",
">. c #F4E2B3",
",. c #F1E2B9",
"<. c #ECE1C1",
"1. c #EDE6D1",
"2. c #EDE7DA",
"3. c #EEE6DA",
"4. c #EEE7DA",
"5. c #EEE7D9",
"6. c #EBE7DE",
"7. c #EBE6DC",
"8. c #EEE7DE",
"9. c #EFE6DD",
"0. c #EDE7DE",
"q. c #EBE8DF",
"w. c #E9E8DF",
"e. c #EDE8DD",
"r. c #F0E6D7",
"t. c #F5E5D2",
"y. c #F3E8D4",
"u. c #F1E8D3",
"i. c #F0E5D8",
"p. c #F1E7DC",
"a. c #E7E7E5",
"s. c #E7E7E6",
"d. c #E7E7E7",
"f. c #E7E7E7",
"g. c #E9E7E3",
"h. c #EBE7E3",
"j. c #EDE7E0",
"k. c #EEE7E0",
"l. c #EEE7E1",
"z. c #ECE7E3",
"x. c #E8E7E5",
"c. c #E9E7E5",
"v. c #EBE7E4",
"b. c #E8E6E6",
"n. c #E8E7E6",
"m. c #E9E7E6",
"M. c #E8E6E7",
"N. c #E8E7E7",
"B. c #E9E6E7",
"V. c #EAE7E4",
"C. c #E7E7E8",
"Z. c #E7E7E9",
"A. c #E7E7E9",
"S. c #E8E7E8",
"D. c #E6E8E8",
/* pixels */
"@.X.& 1 1 1 1 1 1 1 1 1 1 1 1 1 1 1 1 1 1 1 1 1 1 1 1 1 1 7 P @.",
"o.$ 9 , 2 > 2 2 2 2 2 2 2 2 2 2 2 2 2 2 2 2 2 2 2 2 2 2 , < K X.",
"z 9 V C  ...............................................~ S 9 @ ",
"2 3 C S ..=.=.=.=.=.=.=.=.=.=.=.=.=.=.=.=.=.=.=.=.=.=.=.! V 8 X ",
"> 3 a f . o F F F F F F F F F F F F F F F C F F F F 0 . 5 a =   ",
"; 3 a f . . F C F D D D D D D D D D D D D C C C C C 0 . 5 s =   ",
"; 3 d d V F C F >.3.3.3.3.3.3.3.3.3.3.3.3.1.{ C C C C F k a =   ",
"> 3 d d C C F Q :.S.C.C.C.C.C.S.C.C.C.C.d.q.| F C C C C k a =   ",
"; 3 a d C F >.<.6.N.d.d.N.N.N.N.N.N.N.N.N.N.1.,.[ C C C k a =   ",
"; 3 a d C D r.N.N.d.d.N.l.8.8.8.l.N.h.N.N.d.N.6.} C C C k a =   ",
"; 3 a d C D i.N.N.N.N.l.` c c c c Y <.N.C.d.d.q.' j m C k a =   ",
"; 3 a d C F t.l.l.8.l.y.x f s f f h -.N.D.d.d.q.^ s n C k a =   ",
"; 3 a a C C ) ( Z x x x h a n N N B ,.N.N.N.N.q./ f n C k d =   ",
"; 3 a a C C C C g d d d s s M C F G ,.N.N.N.h.q./ d n C k d =   ",
"; 3 a a C C C C N N N B &.-.;.;.:.:.6.h.N.l.#.Y l d n C k d =   ",
"; 3 a a C C C C C C C F ,.N.N.N.C.C.h.l.h.q.' s a d n C k d =   ",
"; 3 a a C C C C C C C F :.N.N.N.N.N.] c x x h a v N V C k a =   ",
"; 3 a a C C C C C C C F >.l.l.l.q.u.c f f d d a n C C C k a =   ",
"; 3 a a C C C C C C C C ! _ R Z c c h s v N N N N C C C k a =   ",
"; 3 a a C C C C C C C C F F j s s h s a b C C C C C C C k a =   ",
"; 3 a a C C C C C C C F | *.%.%.%.$.A b N C C C C C C C k a =   ",
"; 3 a a C C C C C C C F ,.N.d.N.N.8._ C C C C C C C C C k a =   ",
"; 3 a d C C C C C C C F :.N.N.N.N.8.E k N C C C C C C C k a =   ",
"; 3 a d C C C C C C C F ,.z.N.N.z.p.c s b C C C C C C C k a =   ",
"; 3 d d k k v k k k k k W ` T U U U e w s k k k k k k k f a =   ",
"; , d a s s a a a d d d a s 6 3 3 3 3 3 r d d a a a a s d d =   ",
"; , d f - - f d d d d d d d t u u u u u y d d d d d 6 : q i =   ",
"> , a p X X s a a a a a a a a a a a a a a a a d a a : X 5 y =   ",
"2 , a i # # 4 4 4 4 4 4 4 4 4 4 4 4 4 4 4 4 4 4 4 4 ; # q a =   ",
"2 < a s 3 , , , , , , , , , , , , , , , , , , , , , , , r a - X ",
"I K % = O O O O O O O O O O O O O O O O O O O O O O O O # = * L ",
"@.+.+                                                     X J O."
};
