/* XPM */
static char *bc7274c68e7d489aaaea612c326e0bd2[] = {
/* columns rows colors chars-per-pixel */
"32 32 180 2 ",
"   c #020000",
".  c #090407",
"X  c #130100",
"o  c #130A09",
"O  c #1A0000",
"+  c #1A100D",
"@  c #060D11",
"#  c #0D191C",
"$  c #0D1214",
"%  c #141A1C",
"&  c #1A1C1F",
"*  c #220600",
"=  c #2B0C00",
"-  c #250D0A",
";  c #2C0200",
":  c #360200",
">  c #390600",
",  c #28120F",
"<  c #38160B",
"1  c #291F17",
"2  c #2C221C",
"3  c #37221A",
"4  c #0F1C20",
"5  c #1C1D20",
"6  c #152428",
"7  c #173734",
"8  c #2A2725",
"9  c #2C2F2E",
"0  c #322721",
"q  c #352D28",
"w  c #3E302B",
"e  c #263836",
"r  c #333C3A",
"t  c #4A0F00",
"y  c #4C1A06",
"u  c #4D1400",
"i  c #531A04",
"p  c #531904",
"a  c #5B2109",
"s  c #45241A",
"d  c #46291D",
"f  c #552714",
"g  c #5E311C",
"h  c #60230D",
"j  c #7C2200",
"k  c #6B2D13",
"l  c #6E391D",
"z  c #74361A",
"x  c #49352D",
"c  c #593C2E",
"v  c #453834",
"b  c #553E34",
"n  c #472E29",
"m  c #683927",
"M  c #59443A",
"N  c #784328",
"B  c #75533F",
"V  c #764A32",
"C  c #274445",
"Z  c #354C47",
"A  c #315C56",
"S  c #355958",
"D  c #3A6D6A",
"F  c #3E736D",
"G  c #3F7973",
"H  c #5A4F47",
"J  c #445349",
"K  c #485146",
"L  c #5B5E4E",
"P  c #56554C",
"I  c #6E574C",
"U  c #796559",
"Y  c #4A726E",
"T  c #497E77",
"R  c #626160",
"E  c #7D7B6A",
"W  c #7E7867",
"Q  c #666D71",
"!  c #6F7273",
"~  c #737472",
"^  c #8B2B00",
"/  c #942900",
"(  c #992F00",
")  c #89310A",
"_  c #843413",
"`  c #943B11",
"'  c #A23C0C",
"]  c #AA3D0A",
"[  c #A83907",
"{  c #863E21",
"}  c #AF410D",
"|  c #B2420E",
" . c #BF4408",
".. c #A34115",
"X. c #AD4615",
"o. c #B34612",
"O. c #BB4913",
"+. c #844529",
"@. c #834A2D",
"#. c #924424",
"$. c #924F33",
"%. c #965437",
"&. c #A64D29",
"*. c #BD5120",
"=. c #A35431",
"-. c #B35A35",
";. c #B7653F",
":. c #C4470A",
">. c #C64A0D",
",. c #C64F14",
"<. c #C75015",
"1. c #D55D24",
"2. c #D26129",
"3. c #D9652D",
"4. c #905D40",
"5. c #8A644F",
"6. c #946F57",
"7. c #98624A",
"8. c #BD7B57",
"9. c #A86A49",
"0. c #C26943",
"q. c #45827A",
"w. c #4A847F",
"e. c #B5866F",
"r. c #BF8D75",
"t. c #C38C6F",
"y. c #CD9671",
"u. c #C5967B",
"i. c #D39974",
"p. c #DDA27A",
"a. c #D3A07C",
"s. c #4D8F84",
"d. c #558E87",
"f. c #4D928A",
"g. c #509489",
"h. c #589D94",
"j. c #67978B",
"k. c #56A496",
"l. c #5AAA9E",
"z. c #5BB5A2",
"x. c #5DBBA6",
"c. c #5EBBA8",
"v. c #67AEA2",
"b. c #62B4A5",
"n. c #65B6A9",
"m. c #61BBAA",
"M. c #69B5AC",
"N. c #76B5B1",
"B. c #5EC1AC",
"V. c #5EC2B0",
"C. c #62C3AD",
"Z. c #63C6B2",
"A. c #66C9B3",
"S. c #69CAB5",
"D. c #6CCCB9",
"F. c #70CFBC",
"G. c #6CD1BC",
"H. c #99A2A5",
"J. c #B5A8A1",
"K. c #B8BDBF",
"L. c #C69986",
"P. c #C49987",
"I. c #D39F86",
"U. c #D8A583",
"Y. c #EAAD84",
"T. c #F4BF96",
"R. c #C0AEA4",
"E. c #F4C8A8",
"W. c #FED6B8",
"Q. c #BAC0C3",
"!. c #C4C2C0",
"~. c #D1D6D6",
"^. c #EBD6CA",
"/. c #E6D8CE",
"(. c #EFDCCE",
"). c #FFE1C2",
"_. c #FFF0CD",
"`. c #E5EDF0",
"'. c #FDFFFF",
"]. c #EAF3F5",
/* pixels */
"x.x.x.x.x.x.x.c.c.x.x.x.x.c.x.x.x.x.x.x.x.x.x.x.x.x.x.x.x.x.x.c.",
"x.x.x.x.x.x.x.x.x.x.x.x.x.x.x.x.x.x.x.x.x.x.x.x.x.x.x.x.x.x.x.m.",
"c.x.x.x.x.x.x.x.x.x.x.x.x.x.x.x.x.x.x.x.x.x.x.x.x.x.x.x.x.x.x.m.",
"x.x.x.x.x.x.x.x.x.x.x.x.x.x.x.x.x.x.x.x.x.x.x.x.x.x.x.x.x.x.x.m.",
"c.x.x.x.x.x.x.x.x.x.x.x.x.x.x.x.x.x.x.x.x.x.x.x.x.x.x.x.x.x.x.m.",
"c.x.x.x.x.x.x.x.x.x.x.x.x.x.m.m.M.m.x.x.x.x.x.x.x.x.x.x.x.x.x.m.",
"c.x.x.x.x.x.x.x.x.x.x.x.C.v.# # 4 @ T S.z.x.x.c.x.x.x.x.x.x.c.c.",
"c.x.x.x.x.x.x.x.x.x.z.S.h.9 $.$.$.%.x D F.z.x.c.x.x.x.x.x.x.x.m.",
"c.x.x.x.x.x.x.x.x.C.G.f.r +.2.2.2.3.&.x D D.Z.c.x.x.x.x.x.x.x.m.",
"x.x.x.x.x.x.x.x.m.q.D P { 3.:.:.:. .1.&.b Y F z.c.x.x.x.x.x.x.m.",
"x.x.x.x.x.x.x.x.S.v   3 -.:.>.>.>.>.:.*.m   - b.c.x.x.x.x.x.x.m.",
"x.x.x.x.x.x.x.c.l.4.i $ n X.<.,.,.<.O.m % < #.j.x.c.x.x.x.x.x.c.",
"x.x.x.x.x.x.c.v.5 _ ( P.K.X ;.-.-.0.< Q (.^ ..- d.m.x.x.x.x.x.m.",
"x.x.x.x.x.c.l.& _ o./ L.Q.  o o o o   ! ^.^ } .., q.C.x.x.x.x.c.",
"x.x.x.x.x.C.n.@ ` O./ L.K.q !.g u J.R ~ ^.^ | o.O q.D.z.x.x.x.c.",
"x.x.x.x.C.k.r z ' o./ P.'.~.'.#.j /.].`./.^ o.| _ w q.C.x.x.x.c.",
"x.x.x.x.C.f.X o.| | [ =.r.I.t.X.] 8.U.u.9.' | } ,.: A S.z.x.x.c.",
"x.x.x.x.C.g.X ` ' ' [ ;.7.: t a h u : N 8.] ' ' X.; A S.z.x.x.c.",
"x.x.x.x.C.k.9 y p y j e.H.2 q 0 0 q 1 ! J.) i p i 2 T C.x.x.x.m.",
"x.x.x.x.x.B.M.6 # # s < x Y.p.p.p.p.Y.5.* f # % $ d.A.z.x.x.x.c.",
"x.x.x.x.x.x.x.m.b.D.C c U.y.i.i.i.i.y.a.6.% N.M.n.x.x.x.x.x.x.c.",
"x.x.x.x.x.x.x.x.x.F.C c T.E.E.E.E.W.U   3 V B % h.Z.x.x.x.x.x.c.",
"x.x.x.x.x.x.x.x.C.S + < d H ).E.W.U + = f @.N m 8 s.C.x.x.x.x.c.",
"x.x.x.x.x.x.x.z.S.6 * f = o P W._.M = l +.@.@.N   F A.z.x.x.x.m.",
"x.x.x.x.x.x.x.x.m.w.8 y z f < I U s > i k k k = Z k.B.x.x.x.x.m.",
"c.x.x.x.x.x.x.x.z.D.G J E W E e 7 Z J K P L L C z.C.x.x.x.x.x.c.",
"x.x.x.x.x.x.x.x.x.z.C.Z.V.B.V.S.S.Z.Z.Z.Z.Z.Z.A.x.x.x.x.x.x.x.c.",
"x.x.x.x.x.x.x.x.x.x.x.z.x.x.x.x.x.x.z.z.z.z.x.z.x.x.x.x.x.x.x.c.",
"x.x.x.x.x.x.x.x.x.x.x.x.x.x.x.x.x.x.x.x.x.x.x.x.x.x.x.x.x.x.x.c.",
"x.x.x.x.x.x.x.x.x.x.x.x.x.x.x.x.x.x.x.x.x.x.x.x.x.x.x.x.x.x.x.c.",
"x.x.x.x.x.x.x.x.x.x.x.x.x.x.x.x.x.x.x.x.x.x.x.x.x.x.x.x.x.x.x.c.",
"x.x.x.c.c.c.x.x.x.x.x.x.x.x.x.x.x.x.x.x.x.x.x.x.x.x.x.x.x.x.x.c."
};
