/* XPM */
static char *_8556ecd66d24b1ee8a80bd726ac3517Do5Po9dNbaos6mY3[] = {
/* columns rows colors chars-per-pixel */
"32 32 139 2 ",
"   c #6F351C",
".  c #73351D",
"X  c #79371B",
"o  c #74381E",
"O  c #7B391D",
"+  c #6D3927",
"@  c #6B3A29",
"#  c #723720",
"$  c #783721",
"%  c #733922",
"&  c #7B3B22",
"*  c #733B29",
"=  c #7E4027",
"-  c #7E412A",
";  c #843C1C",
":  c #8A3F1F",
">  c #823D23",
",  c #893F23",
"<  c #854024",
"1  c #8A4122",
"2  c #87442A",
"3  c #89462B",
"4  c #874A2D",
"5  c #8C4A2D",
"6  c #914A2D",
"7  c #8C4B30",
"8  c #AD532C",
"9  c #B2552D",
"0  c #BB562B",
"q  c #B5582D",
"w  c #BC5A2E",
"e  c #AE5535",
"r  c #B35432",
"t  c #BF5730",
"y  c #BD5A30",
"u  c #B45D3F",
"i  c #B85939",
"p  c #BE6136",
"a  c #BC6039",
"s  c #C15B2F",
"d  c #C15D33",
"f  c #C26136",
"g  c #C6643C",
"h  c #C8663F",
"j  c #C4683E",
"k  c #C96741",
"l  c #C76A41",
"z  c #CB6841",
"x  c #D5764B",
"c  c #DA774E",
"v  c #D3784C",
"b  c #DC7C4F",
"n  c #D77550",
"m  c #D87651",
"M  c #D67A51",
"N  c #DD7C52",
"B  c #D67E5A",
"V  c #D97F5A",
"C  c #E27E56",
"Z  c #DD8055",
"A  c #D6815C",
"S  c #DF8259",
"D  c #E38156",
"F  c #E4855B",
"G  c #E88059",
"H  c #E9815A",
"J  c #EB865A",
"K  c #EC8759",
"L  c #EA855B",
"P  c #EC895F",
"I  c #EF885D",
"U  c #D68B6C",
"Y  c #D98D6D",
"T  c #E48660",
"R  c #E28865",
"E  c #E98963",
"W  c #ED8D65",
"Q  c #EE8E66",
"!  c #EC8C63",
"~  c #EB8F6A",
"^  c #ED8F69",
"/  c #EF9064",
"(  c #EB966F",
")  c #E19170",
"_  c #E39571",
"`  c #EB9870",
"'  c #ED9A72",
"]  c #EE9B73",
"[  c #EF9B76",
"{  c #EE9A76",
"}  c #EF9C74",
"|  c #EC9D76",
" . c #EE9C76",
".. c #E79D7C",
"X. c #EB9C7D",
"o. c #EC9C7B",
"O. c #EEA27C",
"+. c #F6A37B",
"@. c #F3A47B",
"#. c #F2A37C",
"$. c #F4A27D",
"%. c #F5A37D",
"&. c #F7A37E",
"*. c #F3A47D",
"=. c #F4A57E",
"-. c #F6A47E",
";. c #EE9F80",
":. c #F49F80",
">. c #F7A685",
",. c #FAA681",
"<. c #FBA782",
"1. c #F6A885",
"2. c #FAA880",
"3. c #FCAD86",
"4. c #F5A989",
"5. c #FEAF88",
"6. c #FDAF8B",
"7. c #FBAB88",
"8. c #FFB08B",
"9. c #FFB18B",
"0. c #FBB18C",
"q. c #FEB08C",
"w. c #FFB18D",
"e. c #FFB08F",
"r. c #FFB28E",
"t. c #FFB38F",
"y. c #FFB48D",
"u. c #FEB48F",
"i. c #FFB38D",
"p. c #FFAF91",
"a. c #FFB091",
"s. c #FEB290",
"d. c #FFB391",
"f. c #FFB490",
"g. c #FEB491",
"h. c #FEB592",
"j. c #FFB592",
"k. c #FFB791",
"l. c #FEB992",
/* pixels */
"H ~ g.d.t.t.g.t.y.t.y.6.P Z & & C ! 6.g.t.t.g.t.t.y.t.g.W K 6   ",
"c S { { ] ] ] ] ] ] | ` N x & & x N ( | ] ] ] ] | ] ] | D b 3 o ",
"w w q q 0 0 0 0 0 0 0 0 w 9 & & q w q q 0 0 0 0 0 0 0 0 q w , % ",
"y y w w w w w w w w w w y q & & q y w w w w w w w w w w w y > % ",
"s s s s s s d s s s s y s w O & w s s s s w s s s d s s s s , o ",
"9 9 9 9 9 9 9 9 9 9 9 8 9 8 O O 8 9 9 9 9 9 9 9 9 9 8 9 9 9 , . ",
"o o . o o . & $ o o . o . . + # . . o . o . $ & o o . . o . * * ",
"2 3 7 4 7 4 o & 7 7 5 7 7 6 7 5 5 7 7 7 5 7 & $ 3 7 7 7 2 1 & O ",
"H ~ d.0.g.X.  7 d.t.t.t.t.t.t.t.t.t.t.t.9.p.4 o ;.g.9.d.W J 6 o ",
"N T $.$.,.) . 7 -.*.#.@.*.*.*.*.$.*.*.*.+.:.4 o _ 2.#.-.F C 5 o ",
"w y y y y e o > y y t y y y y y y y y w y i > $ r d t y y w < % ",
"w w w w d r o > w 0 w 0 w w w w w w w w w i > * 9 w w w w y > % ",
"y y w y s 9 $ < w y y y y y y y y y y y d w > $ 9 d y w y d 1 % ",
"q q q q w 8 O ; q q q q q q q q q q q q q q > X 8 w q q q 0 : . ",
"& & X & O O @ $ O & & & & & & & & & O & & O + * X & O & & O * * ",
"& & < - < > - > < < < = & & $ $ & & = = = , - < > = < = & ; $ $ ",
"C R 7.4.>.>.>.>.>.>.7.,.D M & & N D >.4.4.>.>.>.>.>.>.4.F D 6 o ",
"G ! 3.6.3.3.3.3.3.3.3.1.L N & & C F ,.3.6.3.3.3.3.3.3.3.! F 6 o ",
"y d p f d d d d d d d d d q & & w y f p d d d d d d d d d d 1 % ",
"w w w 0 0 w 0 0 0 0 w w w q & & q y q 0 0 0 0 0 0 0 w 0 w w < % ",
"y y w y y y w y y y y w d q & & w w w w y y y y w y y w w y < % ",
"w w w w w w w w w w w w w q O ; w w w w w w w w w w y w w w : X ",
"> > > > > > > > > > > > > ; * * > > > > > > > > > > & > > ; * * ",
"o o $ o o o % $ o o o % o X * & o $ o o o o $ $ o O o $ % X * $ ",
"n A X...O.U . 2 m B o.X.o.o.o.o.o.o.o.o.M v < $ Y X.o.X.V b 5 o ",
"H ^ t.t.g.X.  3 L ! 9.t.y.y.y.y.y.y.y.t.! J 2 o O.l.t.g./ P 6 o ",
"f f j j l u o > f f j j k h h h h h k h f f > o a z h h f f < # ",
"w 0 0 0 q 8 . > w 0 0 0 0 0 0 0 0 0 0 0 w w > $ 9 0 0 0 q w < % ",
"w w w w d 9 $ > y w w w w w w w w w y w w w > % 9 w w w w y > % ",
"w w w y d 9 X ; w w w w w w w w w y w y y w ; X q w w d y s 1 X ",
"< < < > 1 , * & < < < < < < < < < < < , < : * * , < < < < 1 & * ",
"% % % % o o * $ $ % % % % % o o % % % % # X * $ o % % % % X * * "
};
